<?xml version="1.0" encoding="utf-8"?><svg viewBox="0 0 176 83" xmlns="http://www.w3.org/2000/svg" xmlns:xlink="http://www.w3.org/1999/xlink"><style>:root>svg{display:none}:root>svg:target{display:block}</style><svg fill="none" viewBox="0 0 49 48" id="arrow" xmlns="http://www.w3.org/2000/svg"><circle cx="24.5" cy="24" r="24" fill="currentColor"/><path d="M13.25 22.5a1.5 1.5 0 0 0 0 3v-3Zm23.56 2.56a1.5 1.5 0 0 0 0-2.12l-9.545-9.547a1.5 1.5 0 1 0-2.122 2.122L33.63 24l-8.486 8.485a1.5 1.5 0 1 0 2.122 2.122l9.546-9.546Zm-23.56.44h22.5v-3h-22.5v3Z" fill="#21201F"/></svg><svg viewBox="0 0 83 83" fill="none" id="booking" xmlns="http://www.w3.org/2000/svg"><path d="M18 40.485c0-14.418 24.266-22.613 31.542-18.364 7.307 4.25 7.247 32.539 0 36.758C42.266 63.129 18 54.933 18 40.485Z" fill="url(#ba)"/><path d="M18 40.485c0-14.418 24.266-22.613 31.542-18.364 7.307 4.25 7.247 32.539 0 36.758C42.266 63.129 18 54.933 18 40.485Z" fill="#fff" fill-opacity=".5"/><path d="M51.631 71c-3.67 0-7.398-2.594-7.398-7.54 0-3.076 1.628-5.609 4.114-6.815L41.156 29.05c-3.966-.06-7.31.03-10.417.271l-.237-3.016c3.492-.271 7.22-.361 11.808-.271l1.124.03 7.753 29.857C55.507 55.71 59 58.997 59 63.46 59.03 67.772 55.833 71 51.63 71Zm0-12.063c-2.574 0-4.438 1.9-4.438 4.523 0 3.348 2.397 4.524 4.438 4.524 2.575 0 4.44-1.9 4.44-4.524 0-2.623-1.865-4.523-4.44-4.523ZM13.398 71C9.728 71 6 68.406 6 63.46c0-4.312 3.166-7.54 7.398-7.54 3.7 0 6.6 2.504 7.25 6.032h8.523c3.403 0 5-.663 7.457-3.015a81.794 81.794 0 0 0 5.978-6.484l2.278 1.93a77.86 77.86 0 0 1-6.214 6.725c-3.019 2.925-5.327 3.86-9.5 3.86h-8.492C20.027 68.497 17.127 71 13.398 71Zm0-12.063c-2.575 0-4.439 1.9-4.439 4.523 0 3.348 2.397 4.524 4.44 4.524 2.574 0 4.438-1.9 4.438-4.524 0-2.623-1.864-4.523-4.439-4.523ZM50.832 33.09H48.91c-1.066 0-1.953-.875-1.953-1.99 0-1.086.858-1.96 1.953-1.96h1.923v3.95ZM64.128 26.598 55 16.92l1.51-1.594 9.15 9.678-1.532 1.594Zm-7.618 0L55 25.004l9.172-9.678 1.489 1.594-9.15 9.678ZM70.027 21.424v-2.495h2.043c.504 0 .94-.084 1.31-.254a2.08 2.08 0 0 0 .867-.785c.207-.354.31-.778.31-1.27 0-.462-.103-.855-.31-1.178a1.83 1.83 0 0 0-.867-.74c-.384-.184-.858-.277-1.421-.277-.696 0-1.362.131-1.999.393-.622.246-1.288.654-1.999 1.224v-2.68a6.944 6.944 0 0 1 1.288-.761c.445-.2.926-.347 1.444-.44A8.172 8.172 0 0 1 72.36 12c1.036 0 1.932.185 2.687.554.755.37 1.34.886 1.755 1.548.414.662.622 1.424.622 2.287 0 .554-.097 1.054-.29 1.5a3.547 3.547 0 0 1-1.82 1.872c-.4.185-.807.3-1.222.346v-.092c.504.046.985.17 1.444.37.474.184.895.446 1.266.785.37.339.659.747.866 1.224.222.477.333 1.024.333 1.64 0 1-.244 1.879-.733 2.633-.489.74-1.17 1.317-2.043 1.732-.874.4-1.895.601-3.065.601a8.84 8.84 0 0 1-1.71-.162 6.855 6.855 0 0 1-1.533-.439 7.397 7.397 0 0 1-1.31-.762v-2.68c.696.555 1.392.963 2.088 1.225a6.32 6.32 0 0 0 2.243.393c.68 0 1.25-.108 1.71-.324.459-.215.8-.516 1.022-.9.237-.4.355-.878.355-1.432 0-.555-.111-1.017-.333-1.386-.222-.37-.555-.647-1-.832-.444-.185-1.014-.277-1.71-.277h-1.954Z" fill="#21201F"/><defs><linearGradient id="ba" x1="18" y1="40.5" x2="55" y2="40.5" gradientUnits="userSpaceOnUse"><stop stop-color="#FF5C4D"/><stop offset=".25" stop-color="#EB469F"/><stop offset=".72" stop-color="#8341EF"/><stop offset="1" stop-color="#3F68F9"/></linearGradient></defs></svg><svg viewBox="0 0 83 83" fill="none" id="exchange" xmlns="http://www.w3.org/2000/svg"><path d="M11.662 51.318C6.255 33.294 35.416 11.61 46.995 25.044c7.656 8.883 7.09 30.173-4.011 38.427-11.101 8.255-27.748-.234-31.322-12.153Z" fill="url(#ca)"/><path d="M11.662 51.318C6.255 33.294 35.416 11.61 46.995 25.044c7.656 8.883 7.09 30.173-4.011 38.427-11.101 8.255-27.748-.234-31.322-12.153Z" fill="#fff" fill-opacity=".5"/><path d="M32.57 39.9a5.998 5.998 0 0 1 5.453-6.498l23.524-2.059a5.998 5.998 0 0 1 6.498 5.453l.667 7.617a5.998 5.998 0 0 1-5.453 6.498l-23.525 2.058a5.998 5.998 0 0 1-6.498-5.453L32.57 39.9Z" stroke="#21201F" stroke-width="2.715"/><defs><linearGradient id="ca" x1="50.938" y1="31.567" x2="11.944" y2="52.622" gradientUnits="userSpaceOnUse"><stop stop-color="#FF5C4D"/><stop offset=".25" stop-color="#EB469F"/><stop offset=".72" stop-color="#8341EF"/><stop offset="1" stop-color="#3F68F9"/></linearGradient></defs></svg><svg viewBox="0 0 176 51" fill="none" id="logo" xmlns="http://www.w3.org/2000/svg"><path d="M139.016 0h19.462A17.526 17.526 0 0 1 176 17.517v15.097a17.502 17.502 0 0 1-5.132 12.385 17.52 17.52 0 0 1-12.39 5.13h-19.262a17.525 17.525 0 0 1-16.188-10.812 17.502 17.502 0 0 1-1.334-6.703V17.517C121.694 7.84 129.336 0 139.016 0Z" fill="#21201F"/><path d="M143.778 28.343v-.851h-5.126v-3.787h9.994v4.504c0 7.09-3.387 11.21-9.793 11.21-6.606 0-10.443-5.204-10.443-14.38 0-8.947 4.187-14.425 11.869-14.425 2.902 0 5.405.769 6.773 1.77v3.898a12.586 12.586 0 0 0-6.539-1.886c-5.038 0-7.174 3.42-7.174 10.643 0 7.007 1.769 10.591 5.605 10.591 3.665.018 4.834-2.817 4.834-7.287ZM169.371 28.876c0 6.807-3.67 10.56-8.948 10.56-5.277 0-8.947-3.753-8.947-10.509 0-6.807 3.67-10.56 8.947-10.56 5.278 0 8.948 3.736 8.948 10.509Zm-4.956 0c0-4.671-1.335-6.722-3.986-6.722-2.651 0-3.988 2.051-3.988 6.773 0 4.67 1.335 6.723 3.988 6.723s3.986-2.069 3.986-6.774Z" fill="#fff"/><path d="M13.746 14.815h-2.191c-3.98 0-6.077 2.018-6.077 5.003 0 3.387 1.45 4.956 4.437 6.973l2.452 1.653-7.09 10.59H0l6.356-9.474C2.686 26.94.634 24.407.634 20.087c0-5.405 3.748-9.06 10.87-9.06h7.088v28.01H13.73V14.814h.016Zm24.89 3.953v20.268h-4.788V30.58h-6.407v8.457h-4.788V18.768h4.788v8.023h6.407v-8.023h4.788Zm21.636 24.89h-4.437V39.02h-10.76v4.638h-4.438v-8.416h1.501c1.686-3.387 2.02-9.793 2.02-14.746V18.76h13.977v16.481h2.137v8.416Zm-6.924-21.103h-5.07v.601c0 3.502-.366 9.024-1.703 12.093h6.773V22.555ZM71.03 39.42c-6.121 0-9.592-3.42-9.592-10.476 0-6.122 2.786-10.59 8.626-10.59 4.787 0 7.89 2.667 7.89 9.708v2.535h-11.56c.198 3.387 1.533 5.038 5.037 5.038 2.336 0 4.837-.884 6.322-1.901v3.918c-1.4.968-3.654 1.768-6.723 1.768Zm-4.637-12.362h6.689v-.398c0-2.534-.73-4.503-3.104-4.503-2.284-.02-3.451 1.682-3.585 4.901Zm19.584 2.02v9.958h-4.804V18.768h4.804v9.342l6.782-9.342h4.839l-6.773 9.342 7.69 10.91h-5.448l-7.09-9.942Zm12.262-.166c0-6.174 3.186-10.56 9.312-10.56 2.374 0 4.154.4 5.155.966v4.072c-.968-.601-2.787-1.253-4.638-1.253-3.137 0-4.872 2.253-4.872 6.658 0 4.187 1.419 6.854 4.839 6.854 2.018 0 3.469-.516 4.671-1.367v3.904c-1.169.85-2.739 1.25-4.956 1.25-6.409-.016-9.513-3.752-9.513-10.524h.002Z" fill="#21201F"/></svg><svg viewBox="0 0 83 83" fill="none" id="pause" xmlns="http://www.w3.org/2000/svg"><path d="M12.692 50.613c-5.653-17.279 24.835-38.067 36.94-25.188 8.006 8.516 7.413 28.926-4.193 36.84-11.606 7.913-29.01-.226-32.747-11.652Z" fill="url(#ea)"/><path d="M12.692 50.613c-5.653-17.279 24.835-38.067 36.94-25.188 8.006 8.516 7.413 28.926-4.193 36.84-11.606 7.913-29.01-.226-32.747-11.652Z" fill="#fff" fill-opacity=".5"/><path d="M46.33 68.298C33.59 69.281 24 61.064 23.016 48.326c-.983-12.738 7.234-22.329 19.972-23.312 5.07-.391 9.753.647 13.604 2.994 5.68 3.48 9.13 9.496 9.708 16.978.983 12.738-7.234 22.33-19.972 23.312Zm-4.644-40.011c-10.183 1.439-16.393 9.227-15.577 19.8.856 11.1 8.882 17.976 19.981 17.12 11.1-.857 17.976-8.883 17.12-19.982-.5-6.462-3.419-11.648-8.248-14.573-2.904-1.766-6.393-2.647-10.184-2.604l1.682 21.797-14.129 1.09-.255-3.308 11.037-.852-1.427-18.488Zm25.42 4.57-1.781-2.538 4.101-2.866 1.782 2.537-4.102 2.867Zm-6.658-7.293-2.588-1.697 5.014-7.572 2.588 1.698-5.014 7.571ZM50.15 21.102l-3.099-.258c.05-.564-.145-1.077-.616-1.539-1.687-1.704-6.386-1.342-7.791.602-.364.525-.478 1.063-.345 1.581l-3.022.731c-.36-1.434-.039-2.92.862-4.14 1.236-1.713 3.512-2.853 6.047-3.049 2.566-.198 4.96.582 6.444 2.085 1.11 1.096 1.655 2.515 1.52 3.988Z" fill="#21201F"/><defs><linearGradient id="ea" x1="53.756" y1="31.678" x2="14.658" y2="54.701" gradientUnits="userSpaceOnUse"><stop stop-color="#FF5C4D"/><stop offset=".25" stop-color="#EB469F"/><stop offset=".72" stop-color="#8341EF"/><stop offset="1" stop-color="#3F68F9"/></linearGradient></defs></svg><svg viewBox="0 0 83 83" fill="none" id="start" xmlns="http://www.w3.org/2000/svg"><path d="M17.465 59.757c-12.567-12.506 4.266-39.372 15.16-41.61 10.924-2.264 35.523 22.325 32.04 31.885-3.486 9.61-34.606 22.258-47.2 9.725Z" fill="url(#fa)"/><path d="M17.465 59.757c-12.567-12.506 4.266-39.372 15.16-41.61 10.924-2.264 35.523 22.325 32.04 31.885-3.486 9.61-34.606 22.258-47.2 9.725Z" fill="#fff" fill-opacity=".5"/><path d="M29.206 58.403c-1.498-.103-2.873-.508-4.123-1.213-1.218-.733-2.252-1.793-3.101-3.18-.818-1.413-1.421-3.152-1.81-5.215-.388-2.093-.485-4.549-.29-7.369.193-2.82.624-5.224 1.292-7.215.67-2.02 1.506-3.66 2.508-4.918 1.03-1.258 2.199-2.151 3.504-2.681 1.335-.528 2.751-.74 4.25-.638 1.497.104 2.857.507 4.077 1.21 1.221.704 2.241 1.748 3.06 3.133.823 1.355 1.413 3.063 1.773 5.124.39 2.063.488 4.505.294 7.324-.194 2.82-.626 5.24-1.296 7.26-.64 1.992-1.46 3.633-2.464 4.921-1.003 1.289-2.159 2.213-3.466 2.772-1.308.56-2.71.788-4.209.685Zm.195-3.484c.998.069 1.895-.091 2.689-.48.794-.387 1.49-1.062 2.087-2.025.597-.962 1.084-2.242 1.46-3.84.406-1.624.69-3.611.852-5.961.162-2.35.166-4.342.012-5.976-.15-1.663-.457-3.012-.917-4.047-.46-1.035-1.056-1.799-1.79-2.292-.733-.493-1.6-.774-2.598-.843-.999-.068-1.91.09-2.733.476-.794.388-1.505 1.063-2.131 2.023-.598.962-1.1 2.256-1.507 3.88-.375 1.598-.644 3.572-.805 5.921-.162 2.35-.167 4.357-.016 6.02.183 1.636.504 2.97.964 4.006.46 1.035 1.057 1.8 1.79 2.292.763.495 1.644.777 2.643.846ZM50.4 41.931l.976-14.187 7.446.512c3.29.226 5.796 1.122 7.518 2.686 1.751 1.567 2.527 3.804 2.327 6.712-.103 1.498-.456 2.772-1.06 3.823a6.778 6.778 0 0 1-2.387 2.536c-.987.61-2.153 1.047-3.499 1.309-1.344.232-2.824.292-4.44.181L54.33 45.3l-.258 3.745 9.209.634-.212 3.084-9.209-.633-.515 7.49-4.142-.285.515-7.49-3.613-.248.213-3.085 3.613.249.257-3.745-3.613-.249.212-3.084 3.613.248Zm4.872-10.333-.73 10.618 2.952.203c2.144.148 3.805-.18 4.981-.985 1.209-.832 1.877-2.188 2.006-4.068.12-1.733-.292-3.045-1.234-3.936-.91-.919-2.468-1.454-4.67-1.605l-3.305-.227Z" fill="#21201F"/><defs><linearGradient id="fa" x1="17.478" y1="59.77" x2="50.732" y2="26.356" gradientUnits="userSpaceOnUse"><stop stop-color="#FF5C4D"/><stop offset=".25" stop-color="#EB469F"/><stop offset=".72" stop-color="#8341EF"/><stop offset="1" stop-color="#3F68F9"/></linearGradient></defs></svg></svg>